<svg width="100" height="100" viewBox="0 0 100 100" fill="none" xmlns="http://www.w3.org/2000/svg">
<path d="M100 50C100 77.6142 77.6142 100 50 100C22.3858 100 0 77.6142 0 50C0 22.3858 22.3858 0 50 0C77.6142 0 100 22.3858 100 50Z" fill="url(#paint0_linear_1_244)"/>
<path fill-rule="evenodd" clip-rule="evenodd" d="M65.2401 34.78C66.5901 35.03 67.8101 35.72 68.7001 36.8C71.4901 40.2 69.6601 45.38 65.3901 46.26C64.9046 46.3586 64.3746 46.3643 63.8042 46.3703C62.1774 46.3877 60.2216 46.4085 58.0301 48.6L57.4801 49.15L50.8501 42.52L51.4301 41.94C53.2001 40.17 53.6301 37.63 53.6201 35.88C53.6201 30.47 60.1001 28.16 63.6301 31.69C64.4801 32.54 65.0301 33.62 65.2401 34.78ZM44.21 49.1501L49.19 44.1801L55.82 50.8101L50.85 55.7801L44.21 49.1501ZM42.5597 50.8101L41.9997 51.3601C40.4297 52.9301 38.3597 53.8001 36.4697 53.6001C31.1797 53.0501 28.0597 59.1701 31.3297 63.1501C32.2197 64.2301 33.4397 64.9201 34.7897 65.1701C34.9997 66.3301 35.5497 67.4101 36.3997 68.2601C40.0897 71.9501 46.4097 69.3301 46.4097 64.0701C46.3997 62.3201 46.8297 59.7801 48.5897 58.0101L49.1697 57.4301L42.5597 50.8101ZM55.8202 54.13L60.6502 58.96C60.9602 59.26 61.0702 59.71 60.9402 60.12C60.8202 60.53 60.4702 60.85 60.0502 60.93L56.6702 61.61L55.9902 64.99C55.9002 65.41 55.5902 65.76 55.1802 65.88C54.7702 66.01 54.3202 65.9 54.0102 65.59L49.4102 60.99C49.6202 60.52 49.8802 60.07 50.2602 59.69L55.8202 54.13Z" fill="url(#paint1_linear_1_244)"/>
<defs>
<linearGradient id="paint0_linear_1_244" x1="50" y1="0" x2="50" y2="100" gradientUnits="userSpaceOnUse">
<stop stop-color="#B8DEFF"/>
<stop offset="1" stop-color="#1D97FF"/>
</linearGradient>
<linearGradient id="paint1_linear_1_244" x1="50.0122" y1="30.0046" x2="50.0122" y2="56.5" gradientUnits="userSpaceOnUse">
<stop stop-color="white" stop-opacity="0.6"/>
<stop offset="1" stop-color="white"/>
</linearGradient>
</defs>
</svg>
