<svg width="100" height="100" viewBox="0 0 100 100" fill="none" xmlns="http://www.w3.org/2000/svg">
<path d="M100 50C100 77.6142 77.6142 100 50 100C22.3858 100 0 77.6142 0 50C0 22.3858 22.3858 0 50 0C77.6142 0 100 22.3858 100 50Z" fill="url(#paint0_linear_1_217)"/>
<path fill-rule="evenodd" clip-rule="evenodd" d="M41.3655 30H58.6241C61.5969 30 64.0117 32.3806 64.0219 35.3113V57.7369C64.0219 61.948 60.5519 65.3689 56.2804 65.3689C53.6931 65.3689 51.4102 64.1185 49.9999 62.1981C48.5896 64.1185 46.2966 65.3689 43.7194 65.3689C39.4479 65.3689 35.9779 61.948 35.9779 57.7369V35.3113C35.9779 32.3806 38.3927 30 41.3655 30ZM42.6845 44.8437C42.9585 45.1138 43.3339 45.2638 43.7194 45.2638C44.105 45.2638 44.4905 45.1038 44.7543 44.8437C45.0283 44.5736 45.1805 44.2036 45.1805 43.8235C45.1805 43.4434 45.0283 43.0733 44.7543 42.8032C44.4804 42.5331 44.105 42.3831 43.7194 42.3831C43.3339 42.3831 42.9585 42.5331 42.6845 42.8032C42.4106 43.0733 42.2584 43.4434 42.2584 43.8235C42.2584 44.2036 42.4106 44.5736 42.6845 44.8437ZM52.7191 57.4369L54.2917 54.7562C54.9411 53.6459 55.0019 52.4856 54.4541 51.5554C53.9163 50.6352 52.8611 50.105 51.5624 50.105H48.4273C47.1285 50.105 46.0733 50.6352 45.5356 51.5554C44.9979 52.4856 45.0587 53.6459 45.7081 54.7562L47.2807 57.4369C47.9301 58.5471 48.9244 59.1873 49.9999 59.1873C51.0754 59.1873 52.0697 58.5471 52.7191 57.4369ZM56.2804 45.2638C56.6659 45.2638 57.0413 45.1138 57.3153 44.8437C57.5791 44.5736 57.7414 44.1936 57.7414 43.8235C57.7414 43.4434 57.5892 43.0733 57.3153 42.8032C57.0413 42.5331 56.6659 42.3831 56.2804 42.3831C55.8948 42.3831 55.5194 42.5331 55.2455 42.8032C54.9715 43.0733 54.8193 43.4434 54.8193 43.8235C54.8193 44.2036 54.9715 44.5736 55.2455 44.8437C55.5194 45.1138 55.8948 45.2638 56.2804 45.2638ZM66.944 36.8717L74.655 45.984C74.8782 46.244 75 46.5741 75 46.9142C75 50.6952 71.875 53.7759 68.0397 53.7759C67.6643 53.7759 67.2991 53.7459 66.944 53.6859V36.8717ZM31.9602 53.7759C28.125 53.7759 25 50.6952 25 46.9142C25 46.5741 25.1218 46.2441 25.345 45.984L33.056 36.8717V53.6859C32.7009 53.7459 32.3357 53.7759 31.9602 53.7759ZM50 66.239C49.5739 66.549 49.1275 66.819 48.6607 67.059C47.5142 67.649 46.2561 68.029 44.9777 68.179C46.3474 69.329 48.1128 69.999 50 69.999C51.8973 69.999 53.6628 69.319 55.0224 68.179C53.7338 68.029 52.4858 67.649 51.3393 67.059C50.8726 66.819 50.4262 66.549 50 66.239Z" fill="url(#paint1_linear_1_217)"/>
<defs>
<linearGradient id="paint0_linear_1_217" x1="50" y1="0" x2="50" y2="100" gradientUnits="userSpaceOnUse">
<stop stop-color="#FFE4AA"/>
<stop offset="1" stop-color="#FF9C07"/>
</linearGradient>
<linearGradient id="paint1_linear_1_217" x1="50" y1="30" x2="50" y2="51" gradientUnits="userSpaceOnUse">
<stop stop-color="white" stop-opacity="0.6"/>
<stop offset="1" stop-color="white"/>
</linearGradient>
</defs>
</svg>
