<svg width="100" height="100" viewBox="0 0 100 100" fill="none" xmlns="http://www.w3.org/2000/svg">
<path d="M100 50C100 77.6142 77.6142 100 50 100C22.3858 100 0 77.6142 0 50C0 22.3858 22.3858 0 50 0C77.6142 0 100 22.3858 100 50Z" fill="url(#paint0_linear_1_202)"/>
<path fill-rule="evenodd" clip-rule="evenodd" d="M65.2201 34.7844L69.6601 39.2238C70.1101 39.6838 70.1101 40.4237 69.6601 40.8836C69.4301 41.1136 69.1301 41.2236 68.8301 41.2236C68.5301 41.2236 68.2301 41.1136 68.0001 40.8836L64.3901 37.2641L61.6101 40.0437L63.0001 41.4336C64.6801 43.1234 64.6801 45.853 63.0001 47.5328L60.7901 49.7425L57.6301 52.9121L54.1401 49.4226C53.6801 48.9626 52.9401 48.9626 52.4801 49.4226C52.0201 49.8825 52.0201 50.6224 52.4801 51.0824L55.9701 54.5719L53.8901 56.6517L48.6201 51.3823C48.1601 50.9224 47.4201 50.9224 46.9601 51.3823C46.5001 51.8423 46.5001 52.5822 46.9601 53.0421L52.2301 58.3115L50.1501 60.3912L46.6601 56.9016C46.2001 56.4417 45.4601 56.4417 45.0001 56.9016C44.5401 57.3616 44.5401 58.1015 45.0001 58.5614L48.4901 62.051L47.5401 63.0009C46.7301 63.8108 45.6501 64.2607 44.4901 64.2607C43.3301 64.2607 42.2501 63.8108 41.4401 63.0009L40.0501 61.611L32.0001 69.66C31.7701 69.89 31.4701 70 31.1701 70C30.8701 70 30.5701 69.89 30.3401 69.66C29.8801 69.2001 29.8801 68.4602 30.3401 68.0002L38.3901 59.9612L37.0001 58.5714C36.1901 57.7615 35.7401 56.6717 35.7401 55.5218C35.7401 54.362 36.1901 53.2821 37.0001 52.4722L50.2401 39.2238L52.4601 37.0041C53.2701 36.1942 54.3601 35.7443 55.5101 35.7443C56.6701 35.7443 57.7501 36.1942 58.5601 37.0041L59.9501 38.394L62.7301 35.6143L59.1201 32.0047C58.6601 31.5448 58.6601 30.8049 59.1201 30.345C59.5801 29.885 60.3201 29.885 60.7801 30.345L65.2201 34.7844ZM59.9501 47.2728L61.3401 45.883C62.1101 45.1131 62.1101 43.8633 61.3401 43.1034L56.9001 38.6639C56.5301 38.294 56.0401 38.094 55.5101 38.094C54.9801 38.094 54.4901 38.294 54.1201 38.6639L52.7301 40.0537L59.9501 47.2728ZM61.5698 57.1018C61.7898 56.8818 61.9098 56.5818 61.9098 56.2718C61.9098 55.9618 61.7798 55.6618 61.5698 55.4418C61.3498 55.2218 61.0498 55.1018 60.7398 55.1018C60.4298 55.1018 60.1298 55.2318 59.9098 55.4418C59.6898 55.6618 59.5698 55.9618 59.5698 56.2718C59.5698 56.5818 59.6998 56.8818 59.9098 57.1018C60.1298 57.3218 60.4298 57.4418 60.7398 57.4418C61.0498 57.4418 61.3498 57.3218 61.5698 57.1018ZM58.4899 58.0917C58.4899 58.4017 58.3699 58.7017 58.1499 58.9217C57.9299 59.1417 57.6299 59.2617 57.3199 59.2617C57.0099 59.2617 56.7099 59.1417 56.4899 58.9217C56.2799 58.7017 56.1499 58.4017 56.1499 58.0917C56.1499 57.7817 56.2699 57.4717 56.4899 57.2617C56.7099 57.0517 57.0099 56.9217 57.3199 56.9217C57.6299 56.9217 57.9299 57.0417 58.1499 57.2617C58.3599 57.4817 58.4899 57.7817 58.4899 58.0917ZM56.1099 66.7804C56.1099 63.2308 58.9999 60.3412 62.5499 60.3412C66.0999 60.3412 68.9899 63.2308 68.9899 66.7804C68.9899 67.4103 68.8099 68.0202 68.4699 68.5401C67.8699 69.45 66.8599 70 65.7699 70C64.9799 70 64.3699 69.82 63.8299 69.66L63.7996 69.6513L63.7996 69.6513C63.3632 69.5251 62.9995 69.42 62.5499 69.42C62.0899 69.42 61.7099 69.53 61.2699 69.66C60.7299 69.82 60.1199 70 59.3299 70C58.2399 70 57.2299 69.45 56.6299 68.5401C56.2899 68.0202 56.1099 67.4103 56.1099 66.7804ZM65.5299 56.2718C65.5299 56.5818 65.4099 56.8818 65.1899 57.1018C64.9799 57.3218 64.6699 57.4518 64.3599 57.4418C64.0499 57.4418 63.7499 57.3218 63.5299 57.1018C63.3199 56.8818 63.1899 56.5818 63.1899 56.2718C63.1899 55.9618 63.3099 55.6618 63.5299 55.4418C63.7499 55.2318 64.0499 55.1018 64.3599 55.1018C64.6699 55.1018 64.9699 55.2218 65.1899 55.4418C65.4099 55.6618 65.5299 55.9618 65.5299 56.2718ZM68.6099 58.9217C68.8299 58.7017 68.9499 58.4017 68.9499 58.0917C68.9499 57.7817 68.8199 57.4817 68.6099 57.2617C68.3899 57.0417 68.0899 56.9217 67.7799 56.9217C67.4699 56.9217 67.1699 57.0517 66.9499 57.2617C66.7299 57.4717 66.6099 57.7817 66.6099 58.0917C66.6099 58.4017 66.7399 58.7017 66.9499 58.9217C67.1699 59.1417 67.4699 59.2617 67.7799 59.2617C68.0899 59.2617 68.3899 59.1417 68.6099 58.9217Z" fill="url(#paint1_linear_1_202)"/>
<defs>
<linearGradient id="paint0_linear_1_202" x1="50" y1="0" x2="50" y2="100" gradientUnits="userSpaceOnUse">
<stop stop-color="#AFE6EB"/>
<stop offset="1" stop-color="#36BECB"/>
</linearGradient>
<linearGradient id="paint1_linear_1_202" x1="49.9964" y1="30" x2="49.9964" y2="54" gradientUnits="userSpaceOnUse">
<stop stop-color="white" stop-opacity="0.6"/>
<stop offset="1" stop-color="white"/>
</linearGradient>
</defs>
</svg>
